<svg xmlns="http://www.w3.org/2000/svg" xmlns:xlink="http://www.w3.org/1999/xlink" viewBox="0 0 71.77 71.77"><defs><style>.cls-1{fill:url(#linear-gradient);}</style><linearGradient id="linear-gradient" x1="35.88" x2="35.88" y2="71.77" gradientUnits="userSpaceOnUse"><stop offset="0" stop-color="#ff914d"/><stop offset="0.23" stop-color="#ff6841"/><stop offset="0.51" stop-color="#ff3131"/><stop offset="1" stop-color="#c80101"/></linearGradient></defs><g id="Layer_2" data-name="Layer 2"><g id="Layer_1-2" data-name="Layer 1"><path class="cls-1" d="M71.07,28.81c-.08-.39-.16-.78-.25-1.16a35,35,0,0,0-1.5-4.82l-.3-.74-.9-2c-.1-.21-.19-.41-.3-.61s-.18-.36-.27-.54-.13-.23-.2-.35A35.89,35.89,0,1,0,67,53.72c.28-.48.55-1,.8-1.48.07-.13.14-.26.2-.39.36-.71.69-1.43,1-2.17.1-.25.21-.51.3-.76a35.78,35.78,0,0,0,1.5-4.81c.09-.38.17-.77.25-1.16a36.05,36.05,0,0,0,0-14.14ZM28.24,10.75A7.8,7.8,0,1,1,37.42,20,7.76,7.76,0,0,1,28.24,10.75Zm6.48,30a5,5,0,1,1,6.07-6.07A5,5,0,0,1,34.72,40.79Zm-26-20.58a7.79,7.79,0,1,1,2.85,10.64A7.79,7.79,0,0,1,8.73,20.21Zm9.82,34.61a7.79,7.79,0,1,1,3.67-11A7.83,7.83,0,0,1,18.55,54.82ZM35.88,67.24a7.79,7.79,0,1,1,7.79-7.79A7.8,7.8,0,0,1,35.88,67.24ZM63,51.56a7.79,7.79,0,1,1-2.85-10.64A7.79,7.79,0,0,1,63,51.56ZM60.19,30.85A7.79,7.79,0,1,1,63,20.21,7.79,7.79,0,0,1,60.19,30.85Z"/></g></g></svg>